# xmcd
#
# Track frame offsets: 
#        150
#        29027
#        51587
#        72770
#        95584
#        115924
#        146857
#        166890
#        196397
#        214948
#        233352
#        248657
#        278645
#        295088
#        313238
#        332846
#
# Disc length: 4774 seconds
#
# Revision: 0
# Processed by: cddbd v1.5.2PL0 Copyright (c) Steve Scherf et al.
# Submitted via: ExactAudioCopy v1.3
#
DISCID=f712a410
DTITLE=Various Artist - Akella Presents - vol. 156 - Various Styles O
DTITLE=f Blues-Relax  CD1
DYEAR=2018
DGENRE=Blues
TTITLE0=Allen Toussaint - You Don't Know Me
TTITLE1=Mojo Juju - Don't Stop Me Now
TTITLE2=Colin James - Black Knight
TTITLE3=Keith Stone With Red Gravy - Crazy In Love With You
TTITLE4=Duke Robillard - I Don't Want To Say Best Wishes
TTITLE5=Charles Brown - A Virus Called the Blues
TTITLE6=Dr. John - Ain't No Sunshine
TTITLE7=Boz Scaggs - On The Beach
TTITLE8=RoosterHouse Gumbo Band - Rhythm Of The River In The Rain
TTITLE9=T-99 - Hope It's Gonna Rain
TTITLE10=My Graveyard Jaw - Lucy Lu
TTITLE11=Jimmy Reiter - I'm Givin' In
TTITLE12=Buddy Guy and James Bay - Blue No More
TTITLE13=Chad Elliott - Shining Stars
TTITLE14=Ian Siegal - Ain't You Great
TTITLE15=Sue Foley - Same Thing
EXTD=
EXTT0=
EXTT1=
EXTT2=
EXTT3=
EXTT4=
EXTT5=
EXTT6=
EXTT7=
EXTT8=
EXTT9=
EXTT10=
EXTT11=
EXTT12=
EXTT13=
EXTT14=
EXTT15=
PLAYORDER=
